Ground reaction force (.MOT) by Lee-Son Toolkit
nRows=84
nColumns=19

name S4_T_02_fixed_grf.mot
datacolumns 19
datarows 84
range 2.5 2.583
endheader
time	1_ground_force_vx	1_ground_force_vy	1_ground_force_vz	1_ground_force_px	1_ground_force_py	1_ground_force_pz	2_ground_force_vx	2_ground_force_vy	2_ground_force_vz	2_ground_force_px	2_ground_force_py	2_ground_force_pz	1_ground_torque_x	1_ground_torque_y	1_ground_torque_z	2_ground_torque_x	2_ground_torque_y	2_ground_torque_z
2.5	0	0	0	0	0	0	2.46185	-32.7274	7.60079	0.0951377	0	0.0953746	0	0	0	0	-1.12907	0
2.501	0	0	0	0	0	0	2.55008	-32.904	7.42596	0.0951202	0	0.0951056	0	0	0	0	-1.12661	0
2.502	0	0	0	0	0	0	2.41215	-33.9375	7.59956	0.0872927	0	0.0925259	0	0	0	0	-1.17612	0
2.503	0	0	0	0	0	0	2.68187	-33.0754	7.64148	0.0915421	0	0.0925223	0	0	0	0	-1.16607	0
2.504	0	0	0	0	0	0	2.59153	-32.7314	7.32952	0.0902354	0	0.0938531	0	0	0	0	-1.22525	0
2.505	0	0	0	0	0	0	2.59111	-34.1144	7.55778	0.0894706	0	0.0915687	0	0	0	0	-1.15115	0
2.506	0	0	0	0	0	0	2.28215	-33.4208	7.37759	0.0922284	0	0.0936651	0	0	0	0	-1.20358	0
2.507	0	0	0	0	0	0	2.32725	-33.2462	7.46948	0.0932672	0	0.0922951	0	0	0	0	-1.10869	0
2.508	0	0	0	0	0	0	2.28205	-33.5896	7.60098	0.0912356	0	0.0894314	0	0	0	0	-1.09254	0
2.509	0	0	0	0	0	0	2.50467	-33.2467	7.64714	0.0930412	0	0.0956052	0	0	0	0	-1.12705	0
2.51	0	0	0	0	0	0	2.50489	-32.9034	7.41873	0.0928035	0	0.0926863	0	0	0	0	-1.2056	0
2.511	0	0	0	0	0	0	2.50582	-32.7301	7.46469	0.0944663	0	0.0949248	0	0	0	0	-1.19455	0
2.512	0	0	0	0	0	0	2.50604	-32.3815	7.59886	0.0948864	0	0.0969743	0	0	0	0	-1.157	0
2.513	0	0	0	0	0	0	2.41557	-33.2439	7.73104	0.0914082	0	0.0925296	0	0	0	0	-1.14312	0
2.514	0	0	0	0	0	0	2.50528	-32.9001	7.64426	0.0934207	0	0.0942148	0	0	0	0	-1.13035	0
2.515	0	0	0	0	0	0	2.55077	-32.0379	7.42109	0.0958403	0	0.0964071	0	0	0	0	-1.1609	0
2.516	0	0	0	0	0	0	2.59168	-33.2507	7.42359	0.0911648	0	0.0970272	0	0	0	0	-1.20865	0
2.517	0	0	0	0	0	0	2.36939	-33.0712	7.59468	0.0890035	0	0.0931381	0	0	0	0	-1.20606	0
2.518	0	0	0	0	0	0	2.1935	-33.0717	7.4216	0.0921504	0	0.0922131	0	0	0	0	-1.15331	0
2.519	0	0	0	0	0	0	2.3279	-32.724	7.68751	0.0935385	0	0.0952459	0	0	0	0	-1.13771	0
2.52	0	0	0	0	0	0	2.36942	-33.2415	7.77636	0.0891591	0	0.0936368	0	0	0	0	-1.12749	0
2.521	0	0	0	0	0	0	2.32644	-33.2443	7.63999	0.0909135	0	0.0932125	0	0	0	0	-1.20174	0
2.522	0	0	0	0	0	0	2.45962	-33.0739	7.55428	0.0918086	0	0.0950007	0	0	0	0	-1.18367	0
2.523	0	0	0	0	0	0	2.10537	-32.7216	7.60099	0.0932416	0	0.0953607	0	0	0	0	-1.10896	0
2.524	0	0	0	0	0	0	2.28291	-32.0309	7.60057	0.0937993	0	0.0992261	0	0	0	0	-1.12121	0
2.525	0	0	0	0	0	0	2.23622	-33.069	7.64606	0.0903532	0	0.0984372	0	0	0	0	-1.15407	0
2.526	0	0	0	0	0	0	2.28214	-33.0694	7.73362	0.0920352	0	0.0983385	0	0	0	0	-1.16465	0
2.527	0	0	0	0	0	0	2.36966	-33.7655	7.51211	0.0900751	0	0.0913902	0	0	0	0	-1.14791	0
2.528	0	0	0	0	0	0	2.50506	-32.3807	7.59706	0.0931068	0	0.0951435	0	0	0	0	-1.15716	0
2.529	0	0	0	0	0	0	2.50014	-34.1141	7.42018	0.0861725	0	0.0899656	0	0	0	0	-1.21087	0
2.53	0	0	0	0	0	0	2.45937	-32.901	7.51016	0.0917029	0	0.0955478	0	0	0	0	-1.18078	0
2.531	0	0	0	0	0	0	2.41391	-33.4165	7.73092	0.0892097	0	0.0932084	0	0	0	0	-1.16107	0
2.532	0	0	0	0	0	0	2.41372	-33.7654	7.60199	0.0900117	0	0.0953383	0	0	0	0	-1.17103	0
2.533	0	0	0	0	0	0	2.59308	-32.8989	7.8161	0.0909451	0	0.094552	0	0	0	0	-1.19616	0
2.534	0	0	0	0	0	0	2.55025	-32.5555	7.59463	0.093723	0	0.0940406	0	0	0	0	-1.1991	0
2.535	0	0	0	0	0	0	2.45855	-33.4199	7.55208	0.0897128	0	0.0922518	0	0	0	0	-1.20188	0
2.536	0	0	0	0	0	0	2.28214	-32.8989	7.46843	0.0925279	0	0.0950244	0	0	0	0	-1.13363	0
2.537	0	0	0	0	0	0	2.1929	-33.5907	7.50848	0.0907246	0	0.091847	0	0	0	0	-1.19959	0
2.538	0	0	0	0	0	0	2.68264	-32.7309	7.55515	0.0936668	0	0.0966062	0	0	0	0	-1.17738	0
2.539	0	0	0	0	0	0	2.2803	-32.899	7.41976	0.0895773	0	0.0950396	0	0	0	0	-1.20398	0
2.54	0	0	0	0	0	0	2.59376	-33.079	7.37899	0.0939617	0	0.0958315	0	0	0	0	-1.1988	0
2.541	0	0	0	0	0	0	2.28071	-33.59	7.60127	0.0900646	0	0.0946578	0	0	0	0	-1.15659	0
2.542	0	0	0	0	0	0	2.59183	-33.079	7.28763	0.0910474	0	0.0941348	0	0	0	0	-1.22379	0
2.543	0	0	0	0	0	0	2.59121	-33.5944	7.55658	0.0896898	0	0.0929618	0	0	0	0	-1.15312	0
2.544	0	0	0	0	0	0	2.32689	-33.0713	7.60104	0.0925753	0	0.0949615	0	0	0	0	-1.1342	0
2.545	0	0	0	0	0	0	2.27965	-33.4158	7.59894	0.0882244	0	0.0933646	0	0	0	0	-1.15882	0
2.546	0	0	0	0	0	0	2.46046	-33.4204	7.59889	0.0925962	0	0.0933993	0	0	0	0	-1.17907	0
2.547	0	0	0	0	0	0	2.54744	-33.2453	7.72918	0.0894957	0	0.0930954	0	0	0	0	-1.18029	0
2.548	0	0	0	0	0	0	2.50231	-33.2468	7.59838	0.089537	0	0.0967906	0	0	0	0	-1.21364	0
2.549	0	0	0	0	0	0	2.7703	-33.2528	7.46382	0.0915189	0	0.0928487	0	0	0	0	-1.21807	0
2.55	0	0	0	0	0	0	2.50548	-33.0766	7.46632	0.0940751	0	0.0945385	0	0	0	0	-1.18732	0
2.551	0	0	0	0	0	0	2.54848	-33.0766	7.42273	0.0922906	0	0.0933996	0	0	0	0	-1.16111	0
2.552	0	0	0	0	0	0	2.54598	-33.5937	7.5558	0.0885896	0	0.0941134	0	0	0	0	-1.17765	0
2.553	0	0	0	0	0	0	2.32774	-33.246	7.51064	0.0932532	0	0.0910547	0	0	0	0	-1.13812	0
2.554	0	0	0	0	0	0	2.45874	-33.5937	7.55409	0.0903977	0	0.0941219	0	0	0	0	-1.20975	0
2.555	0	0	0	0	0	0	2.50032	-32.8971	7.73208	0.0869731	0	0.0999907	0	0	0	0	-1.19284	0
2.556	0	0	0	0	0	0	2.14734	-33.4167	7.42424	0.090121	0	0.0930184	0	0	0	0	-1.13822	0
2.557	0	0	0	0	0	0	2.45714	-33.2472	7.418	0.0878654	0	0.0905175	0	0	0	0	-1.19637	0
2.558	0	0	0	0	0	0	2.3254	-33.935	7.73735	0.090266	0	0.0929839	0	0	0	0	-1.09002	0
2.559	0	0	0	0	0	0	2.50183	-33.7682	7.46515	0.0887445	0	0.0931592	0	0	0	0	-1.22264	0
2.56	0	0	0	0	0	0	2.45791	-32.5551	7.41811	0.0896916	0	0.0966315	0	0	0	0	-1.2329	0
2.561	0	0	0	0	0	0	2.68035	-33.5958	7.59706	0.0895554	0	0.092894	0	0	0	0	-1.21226	0
2.562	0	0	0	0	0	0	2.36762	-33.5924	7.46588	0.087646	0	0.0947896	0	0	0	0	-1.21268	0
2.563	0	0	0	0	0	0	2.37259	-32.5525	7.60085	0.0945737	0	0.0958705	0	0	0	0	-1.1169	0
2.564	0	0	0	0	0	0	2.90359	-33.2528	7.59656	0.091358	0	0.0932727	0	0	0	0	-1.21195	0
2.565	0	0	0	0	0	0	2.50264	-33.7684	7.46924	0.0904716	0	0.0943443	0	0	0	0	-1.17676	0
2.566	0	0	0	0	0	0	2.14901	-32.8956	7.59978	0.0921007	0	0.0960402	0	0	0	0	-1.1498	0
2.567	0	0	0	0	0	0	2.59079	-32.9075	7.11126	0.0903517	0	0.0948382	0	0	0	0	-1.22824	0
2.568	0	0	0	0	0	0	2.23901	-32.7242	7.55535	0.0936579	0	0.0936227	0	0	0	0	-1.11934	0
2.569	0	0	0	0	0	0	2.5902	-33.5947	7.55252	0.0879401	0	0.0940967	0	0	0	0	-1.2315	0
2.57	0	0	0	0	0	0	2.28231	-33.0727	7.46453	0.0920254	0	0.0933345	0	0	0	0	-1.18766	0
2.571	0	0	0	0	0	0	2.37024	-33.0725	7.55558	0.0913382	0	0.0967738	0	0	0	0	-1.18234	0
2.572	0	0	0	0	0	0	2.37082	-32.5484	7.8188	0.091026	0	0.0955545	0	0	0	0	-1.13182	0
2.573	0	0	0	0	0	0	2.36901	-33.9398	7.42171	0.0890433	0	0.0898706	0	0	0	0	-1.17789	0
2.574	0	0	0	0	0	0	2.45885	-33.5909	7.73375	0.0904235	0	0.0944991	0	0	0	0	-1.14978	0
2.575	0	0	0	0	0	0	2.46198	-32.7297	7.46754	0.0957085	0	0.0961388	0	0	0	0	-1.16593	0
2.576	0	0	0	0	0	0	2.50336	-33.4221	7.46206	0.0902229	0	0.091189	0	0	0	0	-1.22568	0
2.577	0	0	0	0	0	0	2.32664	-33.2461	7.51358	0.0926704	0	0.0957617	0	0	0	0	-1.15204	0
2.578	0	0	0	0	0	0	2.41441	-33.5952	7.3758	0.0904539	0	0.0908425	0	0	0	0	-1.20486	0
2.579	0	0	0	0	0	0	2.68097	-33.0773	7.50885	0.0909454	0	0.0944529	0	0	0	0	-1.20498	0
2.58	0	0	0	0	0	0	2.28412	-32.7227	7.73248	0.0941954	0	0.0940048	0	0	0	0	-1.10394	0
2.581	0	0	0	0	0	0	2.41393	-33.4189	7.55755	0.0903683	0	0.0946147	0	0	0	0	-1.14408	0
2.582	0	0	0	0	0	0	2.37259	-32.8997	7.59871	0.0941502	0	0.0954584	0	0	0	0	-1.17281	0
2.583	0	0	0	0	0	0	2.24033	-32.7235	7.64259	0.0948358	0	0.0917265	0	0	0	0	-1.10765	0
